<svg width="79" height="40" viewBox="0 0 79 40" fill="none" xmlns="http://www.w3.org/2000/svg">
    <path d="M77.9615 0L63.4161 40H64.4546L79 0H77.9615Z" fill="white"/>
    <path d="M64.0379 15.1176C62.5614 15.1176 61.5654 13.9933 61.5654 12.367C61.5654 10.7407 62.5614 9.61645 64.0379 9.61645C65.5143 9.61645 66.4962 10.7549 66.4962 12.3953C66.4962 14.0358 65.5002 15.1176 64.0379 15.1176ZM63.9248 16.1853C64.4241 16.1989 64.919 16.0885 65.3652 15.8639C65.8115 15.6394 66.1952 15.3076 66.4821 14.8984L66.6446 16.0934H67.683V5.85474H66.4821V9.77201C66.2012 9.36076 65.8168 9.03106 65.3678 8.81625C64.9187 8.60145 64.421 8.50916 63.9248 8.54874C61.8621 8.54874 60.3432 10.0831 60.3432 12.367C60.3432 14.7923 61.8621 16.1853 63.9248 16.1853ZM53.5968 16.0934V12.367C53.5968 10.6841 54.4516 9.64474 55.8503 9.64474C57.2491 9.64474 57.8707 10.4649 57.8707 12.0135V16.0934H59.0646V11.9569C59.0646 9.4821 57.7365 8.5629 56.0552 8.5629C55.5879 8.5364 55.1209 8.62201 54.6933 8.81265C54.2657 9.00329 53.8898 9.29342 53.5968 9.65888L53.4414 8.64775H52.403V16.1075L53.5968 16.0934ZM47.3308 15.1176C45.8544 15.1176 44.8583 13.958 44.8583 12.367C44.8583 10.7761 45.8544 9.61645 47.3308 9.61645C48.8072 9.61645 49.7962 10.769 49.7962 12.367C49.7962 13.965 48.8072 15.1176 47.3308 15.1176ZM47.3308 16.1853C48.0897 16.2078 48.838 16.0032 49.4801 15.5975C50.1221 15.1919 50.6286 14.6037 50.9347 13.9083C51.2408 13.2129 51.3327 12.4419 51.1985 11.6939C51.0643 10.9459 50.7102 10.255 50.1815 9.70967C49.6528 9.1643 48.9735 8.78924 48.2306 8.63251C47.4877 8.47578 46.715 8.5445 46.0113 8.82987C45.3077 9.11524 44.7051 9.60429 44.2807 10.2344C43.8563 10.8646 43.6295 11.6071 43.6291 12.367C43.5962 12.8673 43.6685 13.369 43.8413 13.8397C44.0142 14.3103 44.2838 14.7393 44.6326 15.0992C44.9815 15.459 45.4019 15.7416 45.8666 15.9287C46.3314 16.1158 46.8302 16.2032 47.3308 16.1853ZM38.0554 19.0278C39.108 19.0278 39.3905 18.5611 39.8568 17.3661L43.29 8.64067H42.0184L39.8003 14.7287L37.5044 8.64067H36.2328L39.1574 16.1641L38.7618 17.048C38.4651 17.7551 38.3662 17.9247 37.681 17.9247H36.6425V19.0278H38.0554ZM34.608 11.6104H30.1504C30.2002 11.0585 30.4564 10.5457 30.8677 10.1747C31.2789 9.8037 31.815 9.60178 32.3686 9.60938C32.6483 9.58724 32.9295 9.62205 33.1954 9.7117C33.4612 9.80135 33.7062 9.94397 33.9155 10.131C34.1248 10.318 34.294 10.5455 34.413 10.7998C34.5321 11.054 34.5984 11.3298 34.608 11.6104ZM32.4887 16.1924C33.2499 16.2239 33.9969 15.9795 34.5925 15.5041C35.1881 15.0287 35.5924 14.3542 35.7312 13.6044H34.5232C34.4013 14.0647 34.1231 14.4682 33.7364 14.7456C33.3497 15.023 32.8786 15.157 32.404 15.1247C32.0868 15.1339 31.7711 15.0772 31.4769 14.9582C31.1827 14.8392 30.9164 14.6604 30.6946 14.4332C30.4729 14.206 30.3007 13.9352 30.1888 13.638C30.0769 13.3408 30.0277 13.0236 30.0445 12.7064V12.6074H35.8372C35.8372 12.4307 35.8372 12.2539 35.8372 12.0913C35.7807 9.88515 34.4243 8.55582 32.305 8.55582C30.1858 8.55582 28.7729 10.0761 28.7729 12.3741C28.732 12.8762 28.7987 13.3813 28.9687 13.8555C29.1387 14.3297 29.408 14.7621 29.7585 15.1236C30.109 15.4852 30.5327 15.7676 31.0011 15.9519C31.4695 16.1362 31.9719 16.2182 32.4746 16.1924H32.4887ZM23.9621 15.1247C22.5069 15.1247 21.5108 13.9792 21.5108 12.3458C21.5108 10.7124 22.5069 9.62353 23.9621 9.62353C25.4174 9.62353 26.4346 10.7478 26.4346 12.3741C26.4346 14.0004 25.4456 15.1247 23.9621 15.1247ZM24.0822 16.1924C26.145 16.1924 27.6638 14.658 27.6638 12.3741C27.6638 9.94171 26.145 8.55582 24.0822 8.55582C23.5825 8.53966 23.0867 8.64896 22.6401 8.87374C22.1934 9.09852 21.81 9.43164 21.5249 9.84273V5.86181H20.3947V16.1004H21.4331L21.5956 14.962C21.8782 15.372 22.2626 15.7011 22.7111 15.9169C23.1596 16.1326 23.6565 16.2276 24.1529 16.1924"
          fill="white"/>
    <path d="M60.8801 28.2835C62.5119 28.2835 63.833 27.4208 63.833 26.0279C63.833 24.3733 62.4696 24.0268 60.8024 23.8218C59.7498 23.6874 58.9798 23.6167 58.9798 22.7965C58.9798 22.0894 59.6862 21.6652 60.6752 21.6652C61.0892 21.6203 61.5048 21.7328 61.8398 21.9804C62.1748 22.2279 62.4046 22.5924 62.4837 23.0015H63.6846C63.5645 21.4459 62.3565 20.6611 60.6752 20.6469C58.9939 20.6328 57.793 21.5237 57.793 22.8813C57.793 24.4369 59.1211 24.741 60.7459 24.946C61.8408 25.0804 62.6462 25.1794 62.6462 26.1198C62.6462 26.8269 61.9397 27.2582 60.8801 27.2582C59.665 27.2582 58.8738 26.6148 58.8314 25.738H57.6305C57.6305 27.3713 58.9798 28.2835 60.8801 28.2835ZM55.264 23.7015H50.8064C50.8561 23.149 51.112 22.6354 51.5231 22.2633C51.9342 21.8911 52.4703 21.6876 53.0246 21.6934C53.3036 21.6772 53.583 21.7164 53.8468 21.8086C54.1106 21.9009 54.3535 22.0445 54.5617 22.2312C54.7698 22.4178 54.939 22.6438 55.0595 22.8962C55.1801 23.1485 55.2495 23.4222 55.264 23.7015ZM53.1447 28.2835C53.9069 28.3147 54.6547 28.0693 55.2504 27.5925C55.8462 27.1157 56.2499 26.4396 56.3872 25.6885H55.1792C55.0574 26.1494 54.7795 26.5537 54.393 26.8322C54.0064 27.1108 53.5352 27.2464 53.0599 27.2158C52.743 27.2251 52.4277 27.1684 52.1338 27.0493C51.84 26.9303 51.574 26.7514 51.3529 26.524C51.1317 26.2967 50.9601 26.0258 50.849 25.7286C50.7379 25.4314 50.6898 25.1144 50.7075 24.7975V24.6844H56.5002C56.5002 24.5076 56.5002 24.3309 56.5002 24.1682C56.4437 21.9621 55.0874 20.6328 52.9681 20.6328C50.8488 20.6328 49.4359 22.153 49.4359 24.4511C49.395 24.9532 49.4618 25.4583 49.6317 25.9325C49.8017 26.4067 50.071 26.8391 50.4215 27.2006C50.772 27.5622 51.1957 27.8446 51.6641 28.0289C52.1326 28.2132 52.635 28.2952 53.1376 28.2694L53.1447 28.2835ZM45.1832 28.2694C45.9658 28.3186 46.7384 28.072 47.348 27.5784C47.9576 27.0847 48.3599 26.38 48.4752 25.6036H47.2743C47.1759 26.0826 46.9064 26.5092 46.5162 26.8034C46.1261 27.0976 45.642 27.2392 45.155 27.2016C43.7421 27.2016 42.7602 26.0562 42.7602 24.4369C42.7602 22.8177 43.7209 21.7005 45.155 21.7005C45.6295 21.6749 46.0978 21.8176 46.4777 22.1033C46.8575 22.3891 47.1246 22.7998 47.2319 23.2632H48.4469C48.338 22.4947 47.9422 21.796 47.3393 21.3079C46.7363 20.8198 45.9709 20.5786 45.1973 20.6328C44.6989 20.6123 44.2017 20.6978 43.7386 20.8836C43.2755 21.0694 42.857 21.3513 42.5106 21.7107C42.1642 22.0701 41.8978 22.4988 41.729 22.9687C41.5601 23.4386 41.4927 23.939 41.531 24.4369C41.531 26.7138 42.9792 28.2694 45.155 28.2694H45.1832ZM36.4588 27.2441C35.4628 27.2441 34.834 26.7491 34.834 26.0137C34.834 25.1652 35.4345 24.7693 36.5012 24.7693H38.8112V25.137C38.8112 26.3814 37.9494 27.2582 36.4588 27.2582V27.2441ZM36.367 28.2835C36.8558 28.3107 37.3433 28.2103 37.7817 27.9921C38.2201 27.774 38.5943 27.4455 38.8677 27.039C38.8677 27.7461 39.221 28.1916 40.21 28.1916H40.874V27.0956H40.5067C40.4361 27.1018 40.3651 27.0919 40.299 27.0665C40.2328 27.0412 40.1733 27.0011 40.125 26.9493C40.0766 26.8975 40.0407 26.8354 40.0199 26.7676C39.9992 26.6998 39.9941 26.6282 40.0051 26.5582V23.3339C40.0051 21.5944 38.9101 20.6469 37.0098 20.6469C35.1095 20.6469 34.0287 21.5096 33.8521 22.9732H35.053C35.2014 22.2096 35.9007 21.7146 36.9533 21.7146C38.1189 21.7146 38.8112 22.2944 38.8112 23.2632V23.7723H36.6142C34.6574 23.7723 33.619 24.6066 33.619 26.0986C33.619 27.4633 34.7281 28.2835 36.367 28.2835ZM31.2242 28.1916V21.8278H33.3435V20.7318H31.2242V19.8691C31.2242 19.2964 31.4432 19.0489 32.0436 19.0489H33.3435V17.9529H31.9659C30.5531 17.9529 30.0233 18.5822 30.0233 19.8974V20.7318H28.681V21.8561H30.0233V28.2199L31.2242 28.1916ZM25.6363 28.1916V24.3874C25.6363 23.2066 26.0602 21.8985 27.6285 21.8985H28.2218V20.7318H27.8898C27.4464 20.6862 26.9991 20.7677 26.6002 20.9667C26.2012 21.1658 25.8669 21.4742 25.6363 21.8561L25.4739 20.7318H24.4354V28.2199L25.6363 28.1916ZM21.7792 23.7015H17.3146C17.3676 23.149 17.6254 22.6363 18.0373 22.2646C18.4492 21.8929 18.9853 21.6891 19.5398 21.6934C19.8188 21.6772 20.0982 21.7164 20.362 21.8086C20.6258 21.9009 20.8688 22.0445 21.0769 22.2312C21.285 22.4178 21.4542 22.6438 21.5748 22.8962C21.6953 23.1485 21.7648 23.4222 21.7792 23.7015ZM19.6599 28.2835C20.4221 28.3147 21.1699 28.0693 21.7657 27.5925C22.3615 27.1157 22.7652 26.4396 22.9024 25.6885H21.8075C21.6881 26.1508 21.4109 26.5567 21.0237 26.8357C20.6366 27.1146 20.1641 27.2491 19.6882 27.2158C19.3713 27.2251 19.0559 27.1684 18.7621 27.0493C18.4682 26.9303 18.2023 26.7514 17.9811 26.524C17.76 26.2967 17.5884 26.0258 17.4773 25.7286C17.3662 25.4314 17.318 25.1144 17.3358 24.7975V24.6844H23.1285C23.1285 24.5076 23.1285 24.3309 23.1285 24.1682C23.0649 21.9621 21.7156 20.6328 19.5964 20.6328C17.4771 20.6328 16.0642 22.153 16.0642 24.4511C16.0233 24.9532 16.09 25.4583 16.26 25.9325C16.43 26.4067 16.6993 26.8391 17.0498 27.2006C17.4003 27.5622 17.824 27.8446 18.2924 28.0289C18.7608 28.2132 19.2632 28.2952 19.7659 28.2694L19.6599 28.2835ZM15.6686 28.1774V27.0815H14.3688C13.7683 27.0815 13.5493 26.8481 13.5493 26.2188V21.8561H15.4496V20.7601H13.5634V18.6388H12.3625V20.7601H11.0203V21.8561H12.3625V26.2754C12.3625 27.5905 12.8782 28.2199 14.3123 28.2199L15.6686 28.1774ZM4.85318 28.2199V24.4935C4.85318 22.8106 5.70089 21.7712 7.09962 21.7712C8.49835 21.7712 9.09175 22.5631 9.09175 24.1117V28.2199H10.2927V24.0692C10.2927 21.5944 8.95752 20.6752 7.27622 20.6752C6.80974 20.6475 6.34346 20.7326 5.91679 20.9234C5.49011 21.1142 5.11559 21.405 4.82491 21.7712L4.66245 20.7601H3.624V28.2199H4.85318ZM1.41994 20.4419H0.00708008V28.2199H1.41994V20.4419ZM1.41994 17.6135H0.00708008V19.0277H1.41994V17.6135Z"
          fill="white"/>
</svg>
